<svg width="429" height="87" viewBox="0 0 429 87" fill="none" xmlns="http://www.w3.org/2000/svg">
<g clip-path="url(#clip0_10_105)">
<path d="M37.7543 67.755L27.9836 82.6083C27.4126 83.4709 26.6771 84.2123 25.8191 84.79C24.9611 85.3678 23.9975 85.7706 22.9836 85.9753C22.4972 86.0723 22.0025 86.1215 21.5065 86.1221C20.0612 86.1255 18.6482 85.694 17.4515 84.8836C16.6061 84.3184 15.8874 83.5837 15.341 82.7262C14.7946 81.8686 14.4323 80.9068 14.2771 79.9019C14.1167 78.8998 14.1616 77.8757 14.4092 76.8915C14.6568 75.9074 15.1019 74.9839 15.7175 74.1771L29.1579 56.7458C29.3055 56.5549 29.4893 56.3948 29.6987 56.2749C29.9081 56.155 30.1391 56.0774 30.3785 56.0468C30.6179 56.0161 30.861 56.0329 31.0939 56.0962C31.3268 56.1594 31.545 56.268 31.7359 56.4156C31.9269 56.5631 32.0869 56.7469 32.2068 56.9563C32.3268 57.1658 32.4043 57.3968 32.435 57.6361C32.4657 57.8755 32.4489 58.1186 32.3856 58.3515C32.3223 58.5844 32.2138 58.8026 32.0662 58.9935L18.6258 76.4248C18.3139 76.8359 18.0895 77.3066 17.9664 77.8077C17.8434 78.3089 17.8242 78.8299 17.9102 79.3388C17.9961 79.8476 18.1853 80.3335 18.4662 80.7664C18.7471 81.1993 19.1136 81.5701 19.5432 81.856C19.9434 82.1235 20.3931 82.3084 20.8657 82.3997C21.3383 82.4911 21.8244 82.4872 22.2955 82.3881C22.8328 82.2805 23.3436 82.0678 23.7986 81.7624C24.2535 81.457 24.6438 81.0648 24.9469 80.6083L34.6809 65.7367C34.9523 65.3391 35.3691 65.0642 35.8414 64.9711C36.3136 64.878 36.8036 64.9742 37.2056 65.239C37.6076 65.5037 37.8894 65.9159 37.9904 66.3866C38.0913 66.8572 38.0032 67.3487 37.7451 67.755H37.7543ZM76.36 1.99332C72.9379 -0.447062 68.2865 -0.630548 63.2773 1.48873C58.1117 3.84919 53.6871 7.57284 50.4791 12.2594C45.8369 18.7732 43.6626 26.2319 44.6718 32.2136C44.8951 33.5982 44.7722 35.0166 44.314 36.3421C44.2362 36.5704 44.2043 36.8118 44.2198 37.0524C44.2354 37.2931 44.2982 37.5283 44.4047 37.7447C44.5112 37.9611 44.6593 38.1544 44.8405 38.3136C45.0217 38.4727 45.2324 38.5947 45.4607 38.6724C45.6891 38.7501 45.9304 38.782 46.1711 38.7665C46.4118 38.7509 46.647 38.6881 46.8634 38.5816C47.0798 38.4751 47.2731 38.327 47.4322 38.1458C47.5914 37.9646 47.7133 37.7539 47.791 37.5256C48.4448 35.6249 48.6181 33.592 48.2956 31.6081C47.4608 26.6356 49.4424 20.0393 53.47 14.3879C56.2751 10.2586 60.1504 6.96995 64.681 4.87406C68.4792 3.27772 71.8554 3.31442 74.204 4.99333C76.5526 6.67223 77.6994 9.84656 77.4242 13.9567C76.9235 18.9244 75.081 23.6624 72.0939 27.6631C68.103 33.3237 62.47 37.3513 57.4975 38.1769C55.5556 38.5112 53.7236 39.3107 52.158 40.5072C51.7303 40.8339 51.3229 41.1863 50.9378 41.5623C50.6164 41.9072 50.4401 42.3627 50.4455 42.8342C50.4509 43.3056 50.6375 43.7569 50.9668 44.0945C51.296 44.432 51.7426 44.6298 52.2138 44.6468C52.685 44.6639 53.1447 44.4989 53.4975 44.1861C53.7871 43.9134 54.0935 43.659 54.4149 43.4247C55.5037 42.5888 56.7784 42.0285 58.1305 41.7916C64.1214 40.7916 70.4608 36.287 75.1122 29.7916C78.4939 25.2347 80.5713 19.8431 81.1214 14.1952C81.4517 8.77316 79.7636 4.43369 76.36 1.99332ZM36.3139 35.3604C36.2721 35.2862 36.2502 35.2025 36.2502 35.1173C36.2502 35.0321 36.2721 34.9484 36.3139 34.8742C37.1133 33.0674 37.4288 31.0837 37.2294 29.118C37.0299 27.1524 36.3224 25.2725 35.1763 23.6631L18.7909 0.80065C18.6531 0.598659 18.4763 0.426258 18.2708 0.293578C18.0654 0.160899 17.8356 0.0706187 17.5948 0.0280431C17.354 -0.0145325 17.1071 -0.00854429 16.8686 0.0456558C16.6302 0.0998558 16.4049 0.201174 16.2062 0.343656C16.0075 0.486138 15.8392 0.666909 15.7113 0.875345C15.5834 1.08378 15.4985 1.31568 15.4615 1.5574C15.4246 1.79913 15.4363 2.04581 15.496 2.28295C15.5557 2.52008 15.6622 2.74289 15.8093 2.93827L32.1763 25.8008C32.9527 26.8895 33.4322 28.1618 33.5673 29.4922C33.7024 30.8226 33.4886 32.1653 32.9469 33.3879C32.6374 34.0682 32.5174 34.8196 32.5998 35.5625C32.6821 36.3053 32.9637 37.0122 33.4148 37.6081L63.6902 76.7643C63.989 77.1388 64.2085 77.5703 64.3353 78.0323C64.4621 78.4944 64.4936 78.9774 64.4278 79.4521C64.362 79.9267 64.2003 80.3829 63.9526 80.7931C63.7049 81.2033 63.3763 81.5587 62.9869 81.8379C62.5975 82.117 62.1553 82.314 61.6873 82.4169C61.2193 82.5197 60.7353 82.5263 60.2647 82.4362C59.7941 82.346 59.3468 82.1611 58.9499 81.8926C58.553 81.6241 58.2149 81.2777 57.9562 80.8744L30.4882 39.6815C30.0711 39.0566 29.4928 38.5561 28.8145 38.2331C28.1361 37.9101 27.383 37.7765 26.635 37.8467C25.3029 37.9694 23.9619 37.743 22.744 37.1895C21.5262 36.6361 20.4736 35.7749 19.69 34.6907L3.35049 11.8833C3.21265 11.6813 3.03583 11.5089 2.83041 11.3762C2.625 11.2435 2.39514 11.1532 2.15433 11.1107C1.91353 11.0681 1.66664 11.0741 1.42819 11.1283C1.18973 11.1825 0.964512 11.2838 0.765771 11.4263C0.56703 11.5688 0.398774 11.7495 0.270893 11.958C0.143012 12.1664 0.0580846 12.3983 0.0211033 12.64C-0.0158781 12.8817 -0.00416752 13.1284 0.0555464 13.3656C0.11526 13.6027 0.221773 13.8255 0.368824 14.0209L16.7267 36.8742C17.8845 38.4799 19.4416 39.7554 21.2438 40.5745C23.046 41.3935 25.0309 41.7277 27.002 41.5439C27.087 41.5306 27.174 41.5397 27.2544 41.5703C27.3349 41.6009 27.4059 41.6519 27.4607 41.7182L54.892 82.9019C55.4243 83.7098 56.1151 84.4012 56.9225 84.9342C57.7299 85.4673 58.6372 85.8308 59.5892 86.0028C60.0221 86.0821 60.4612 86.122 60.9012 86.1221C62.2458 86.1184 63.5625 85.7384 64.7023 85.025C65.8421 84.3117 66.7594 83.2935 67.3504 82.0857C67.9414 80.8779 68.1825 79.5288 68.0463 78.1911C67.9102 76.8534 67.4023 75.5805 66.5801 74.5165L36.3139 35.3604ZM24.5891 30.4246C24.9253 30.4252 25.2553 30.3335 25.5429 30.1593C25.8305 29.9852 26.0647 29.7353 26.22 29.4371C26.3753 29.1389 26.4456 28.8037 26.4233 28.4682C26.4011 28.1327 26.287 27.8098 26.0937 27.5347L11.1395 6.17682C11.0016 5.97923 10.826 5.81075 10.623 5.681C10.4199 5.55124 10.1933 5.46275 9.95603 5.42058C9.71878 5.37841 9.47553 5.38339 9.2402 5.43522C9.00486 5.48706 8.78204 5.58474 8.58445 5.72269C8.38687 5.86064 8.21839 6.03615 8.08863 6.23921C7.95888 6.44227 7.87039 6.6689 7.82822 6.90616C7.78605 7.14342 7.79102 7.38666 7.84286 7.622C7.89469 7.85734 7.99237 8.08016 8.13032 8.27774L23.0845 29.6356C23.2531 29.8787 23.478 30.0774 23.74 30.2148C24.002 30.3521 24.2933 30.4241 24.5891 30.4246Z" fill="white"/>
<path d="M131.411 39.8167V38.9988C131.411 32.2736 128.912 28.911 123.913 28.911C121.051 28.911 118.983 30.2174 117.711 32.8302C116.438 35.4431 115.802 39.2941 115.802 44.3835C115.802 49.4273 116.597 53.1762 118.188 55.63C119.778 58.0837 122.096 59.3106 125.14 59.3106C126.731 59.3106 128.492 58.9357 130.423 58.186C132.354 57.4362 134.456 56.2434 136.728 54.6075C137.864 55.38 138.92 56.4365 139.897 57.777C140.874 59.1175 141.476 60.4012 141.703 61.6281C140.658 62.6278 139.443 63.5707 138.057 64.4567C136.671 65.3428 135.171 66.104 133.558 66.7401C131.945 67.3763 130.264 67.8875 128.514 68.2737C126.765 68.66 125.004 68.8531 123.232 68.8531C119.733 68.8531 116.779 68.1828 114.371 66.8424C111.963 65.5019 110.02 63.7183 108.543 61.4918C107.066 59.2652 105.999 56.6978 105.34 53.7896C104.681 50.8814 104.351 47.8597 104.351 44.7243C104.351 40.6346 104.863 37.0562 105.885 33.989C106.907 30.9218 108.293 28.3657 110.043 26.3209C111.792 24.2761 113.848 22.7425 116.211 21.7201C118.574 20.6977 121.096 20.1865 123.777 20.1865C126.503 20.1865 128.98 20.55 131.207 21.277C133.433 22.0041 135.33 23.0038 136.898 24.2761C138.466 25.5484 139.67 27.048 140.51 28.7747C141.351 30.5014 141.771 32.3645 141.771 34.3639C141.771 38.4081 139.704 40.4302 135.569 40.4302C134.342 40.4302 132.956 40.2257 131.411 39.8167ZM176.533 45.3377V59.3106C176.533 62.3551 177.101 64.6044 178.237 66.0585C176.511 67.6035 174.42 68.376 171.967 68.376C169.604 68.376 167.991 67.8307 167.127 66.7401C166.264 65.6496 165.832 63.991 165.832 61.7644V47.2462C165.832 45.7012 165.628 44.5652 165.219 43.8382C164.81 43.1111 164.015 42.7476 162.833 42.7476C162.151 42.7476 161.379 42.9294 160.516 43.2929C159.652 43.6564 158.766 44.2471 157.857 45.0651V67.8307C156.358 68.1033 154.631 68.2397 152.677 68.2397C150.723 68.2397 148.996 68.1033 147.497 67.8307V18.1417L147.974 17.6645H152.064C154.245 17.6645 155.756 18.1417 156.596 19.0959C157.437 20.0501 157.857 21.7087 157.857 24.0716V36.954C160.902 34.4547 163.946 33.2051 166.991 33.2051C170.035 33.2051 172.387 34.3071 174.045 36.5109C175.704 38.7148 176.533 41.657 176.533 45.3377ZM211.023 54.2667H193.233C193.324 56.3116 193.846 57.902 194.8 59.038C195.755 60.174 197.322 60.742 199.503 60.742C200.594 60.742 201.855 60.583 203.286 60.2649C204.718 59.9468 206.365 59.4242 208.228 58.6972C209.728 60.2421 210.659 62.3324 211.023 64.9679C207.387 67.558 202.934 68.8531 197.663 68.8531C194.8 68.8531 192.403 68.3987 190.472 67.4899C188.541 66.5811 186.973 65.3087 185.769 63.6729C184.565 62.037 183.713 60.1058 183.213 57.8792C182.713 55.6527 182.463 53.2216 182.463 50.5861C182.463 48.0414 182.77 45.6899 183.383 43.5315C183.997 41.373 184.928 39.4986 186.178 37.9082C187.428 36.3178 189.018 35.0682 190.949 34.1594C192.88 33.2506 195.141 32.7962 197.731 32.7962C199.912 32.7962 201.878 33.1597 203.627 33.8867C205.377 34.6138 206.865 35.6135 208.092 36.8858C209.319 38.1581 210.261 39.6804 210.92 41.4526C211.579 43.2247 211.909 45.1559 211.909 47.2462C211.909 50.0181 211.613 52.3582 211.023 54.2667ZM193.165 46.9054H202.162V46.1556C202.162 44.4743 201.787 43.0884 201.037 41.9978C200.287 40.9073 199.163 40.362 197.663 40.362C196.209 40.362 195.13 40.8732 194.425 41.8956C193.721 42.918 193.301 44.5879 193.165 46.9054ZM220.292 67.8307V41.2481L214.431 41.3162C214.158 40.1802 214.022 38.9306 214.022 37.5674C214.022 36.2042 214.158 34.9319 214.431 33.7504L219.747 33.8186C219.52 32.1373 219.406 30.615 219.406 29.2518C219.406 25.8438 220.508 23.0151 222.712 20.7658C224.916 18.5165 227.79 17.3919 231.334 17.3919C234.879 17.3919 238.355 18.0281 241.763 19.3004C241.808 20.4818 241.604 21.7655 241.15 23.1515C240.695 24.5374 240.127 25.5939 239.446 26.3209C237.31 25.6848 235.56 25.3667 234.197 25.3667C231.153 25.3667 229.63 26.9344 229.63 30.0697C229.63 31.3875 229.721 32.6598 229.903 33.8867L238.832 33.7504C239.105 34.9319 239.241 36.2042 239.241 37.5674C239.241 38.9306 239.105 40.1802 238.832 41.3162L230.653 41.1799V67.8307C229.108 68.1033 227.404 68.2397 225.541 68.2397C223.678 68.2397 221.928 68.1033 220.292 67.8307ZM240.059 65.5132C240.104 64.3318 240.411 63.0367 240.979 61.6281C241.547 60.2194 242.217 59.1061 242.99 58.2882C246.625 60.1967 249.783 61.151 252.464 61.151C253.736 61.151 254.713 60.9351 255.395 60.5034C256.077 60.0717 256.417 59.4924 256.417 58.7653C256.417 57.4021 255.372 56.3797 253.282 55.6981L249.533 54.2667C243.853 52.1765 241.013 48.7685 241.013 44.0427C241.013 40.5892 242.206 37.8514 244.592 35.8293C246.977 33.8072 250.192 32.7962 254.236 32.7962C256.236 32.7962 258.44 33.0802 260.848 33.6482C263.256 34.2162 265.233 34.8864 266.778 35.6589C266.869 36.9312 266.619 38.3285 266.028 39.8508C265.437 41.373 264.71 42.4522 263.847 43.0884C260.03 41.3617 256.849 40.4983 254.305 40.4983C253.396 40.4983 252.703 40.7028 252.226 41.1118C251.748 41.5207 251.51 42.0433 251.51 42.6794C251.51 43.77 252.373 44.6334 254.1 45.2695L258.326 46.7691C264.37 48.9048 267.391 52.5627 267.391 57.7429C267.391 61.151 266.142 63.8547 263.642 65.854C261.143 67.8534 257.576 68.8531 252.941 68.8531C248.306 68.8531 244.012 67.7398 240.059 65.5132ZM290.361 53.2443H284.977V67.8307C283.523 68.1033 281.705 68.2397 279.524 68.2397C277.297 68.2397 275.48 68.1033 274.071 67.8307V21.6178L274.548 21.1407C278.501 21.0498 281.785 20.9817 284.397 20.9362C287.01 20.8908 288.998 20.8681 290.361 20.8681C292.861 20.8681 295.144 21.2089 297.212 21.8905C299.279 22.5721 301.04 23.5945 302.494 24.9577C303.948 26.3209 305.073 28.0136 305.868 30.0357C306.663 32.0578 307.061 34.3866 307.061 37.0221C307.061 39.6577 306.652 41.9865 305.834 44.0086C305.016 46.0307 303.88 47.7233 302.426 49.0865C300.972 50.4497 299.211 51.4835 297.143 52.1878C295.076 52.8922 292.815 53.2443 290.361 53.2443ZM284.977 29.1837V45.0651C286.249 45.0196 287.26 44.9855 288.01 44.9628C288.76 44.9401 289.248 44.9287 289.475 44.9287C290.702 44.9287 291.725 44.7129 292.543 44.2812C293.36 43.8495 294.019 43.2815 294.519 42.5772C295.019 41.8729 295.383 41.0436 295.61 40.0893C295.837 39.1351 295.951 38.1354 295.951 37.0903C295.951 36.0906 295.837 35.1136 295.61 34.1594C295.383 33.2051 295.03 32.3645 294.553 31.6374C294.076 30.9104 293.451 30.331 292.679 29.8993C291.906 29.4677 290.998 29.2518 289.952 29.2518H287.158C287.158 29.2518 286.431 29.2291 284.977 29.1837ZM326.418 60.0604H328.259C328.804 61.5599 329.077 63.0595 329.077 64.559C329.077 66.0585 329.008 67.0355 328.872 67.4899C326.146 67.9443 323.715 68.1715 321.579 68.1715C318.489 68.1715 316.297 67.4104 315.001 65.8881C313.706 64.3659 313.059 61.9689 313.059 58.6972V18.1417L313.468 17.6645H317.626C319.761 17.6645 321.261 18.1417 322.124 19.0959C322.988 20.0501 323.419 21.7087 323.419 24.0716V56.8568C323.419 58.9925 324.419 60.0604 326.418 60.0604ZM363.361 62.9231C363.134 63.8774 362.702 64.8998 362.066 65.9903C361.43 67.0809 360.771 67.8761 360.09 68.376C356.909 68.2851 354.455 67.0809 352.728 64.7635C349.775 67.4899 346.571 68.8531 343.118 68.8531C341.346 68.8531 339.801 68.5691 338.483 68.0011C337.165 67.4331 336.052 66.672 335.143 65.7177C334.234 64.7635 333.552 63.6615 333.098 62.4119C332.644 61.1623 332.416 59.8559 332.416 58.4927C332.416 56.5388 332.769 54.8234 333.473 53.3466C334.177 51.8698 335.143 50.6429 336.37 49.6659C337.597 48.6889 339.028 47.9505 340.664 47.4507C342.3 46.9508 344.049 46.7009 345.912 46.7009C346.957 46.7009 347.878 46.7123 348.673 46.735C349.468 46.7577 350.161 46.7918 350.752 46.8372V45.5422C350.752 42.6794 349.275 41.2481 346.321 41.2481C344.413 41.2481 341.073 41.9751 336.302 43.4292C334.938 41.8388 334.075 39.3623 333.712 35.9997C334.802 35.5908 336.018 35.2045 337.358 34.841C338.699 34.4775 340.073 34.1594 341.482 33.8867C342.89 33.6141 344.276 33.3983 345.64 33.2392C347.003 33.0802 348.23 33.0007 349.32 33.0007C350.911 33.0007 352.444 33.2279 353.921 33.6823C355.398 34.1367 356.693 34.8296 357.806 35.7612C358.92 36.6927 359.806 37.8968 360.465 39.3737C361.123 40.8505 361.453 42.6113 361.453 44.6561V58.4927C361.453 60.583 362.089 62.0598 363.361 62.9231ZM342.777 57.8111C342.777 59.9468 344.004 61.0146 346.458 61.0146C347.73 61.0146 349.161 60.3557 350.752 59.038V53.5851C349.843 53.5397 349.082 53.5056 348.468 53.4829C347.855 53.4602 347.389 53.4488 347.071 53.4488C344.208 53.4488 342.777 54.9029 342.777 57.8111ZM368.542 58.6972L376.585 47.9278C378.084 45.9284 379.924 43.7927 382.106 41.5207L381.901 41.1799C378.538 41.5434 375.721 41.7252 373.449 41.7252H368.201C367.928 40.6346 367.792 39.4759 367.792 38.249C367.792 37.0221 367.996 35.5453 368.405 33.8186H392.125C393.079 36.5904 393.556 38.5444 393.556 39.6804C393.556 40.8164 393.216 41.8615 392.534 42.8158L384.15 53.9259C382.015 56.7432 380.311 58.7881 379.038 60.0604L379.243 60.4012C381.242 60.1285 383.037 59.9922 384.627 59.9922H387.013C389.694 59.9922 391.807 59.606 393.352 58.8335C394.079 60.6057 394.443 62.037 394.443 63.1276C394.443 66.263 392.557 67.8307 388.785 67.8307H368.201C367.428 65.6495 367.042 63.8887 367.042 62.5482C367.042 61.2078 367.542 59.9241 368.542 58.6972ZM429 62.9231C428.773 63.8774 428.341 64.8998 427.705 65.9903C427.069 67.0809 426.41 67.8761 425.728 68.376C422.547 68.2851 420.094 67.0809 418.367 64.7635C415.413 67.4899 412.21 68.8531 408.756 68.8531C406.984 68.8531 405.439 68.5691 404.121 68.0011C402.804 67.4331 401.69 66.672 400.781 65.7177C399.873 64.7635 399.191 63.6615 398.737 62.4119C398.282 61.1623 398.055 59.8559 398.055 58.4927C398.055 56.5388 398.407 54.8234 399.112 53.3466C399.816 51.8698 400.781 50.6429 402.008 49.6659C403.235 48.6889 404.667 47.9505 406.302 47.4507C407.938 46.9508 409.688 46.7009 411.551 46.7009C412.596 46.7009 413.516 46.7123 414.311 46.735C415.107 46.7577 415.8 46.7918 416.39 46.8372V45.5422C416.39 42.6794 414.913 41.2481 411.96 41.2481C410.051 41.2481 406.711 41.9751 401.94 43.4292C400.577 41.8388 399.714 39.3623 399.35 35.9997C400.441 35.5908 401.656 35.2045 402.997 34.841C404.337 34.4775 405.712 34.1594 407.12 33.8867C408.529 33.6141 409.915 33.3983 411.278 33.2392C412.641 33.0802 413.868 33.0007 414.959 33.0007C416.549 33.0007 418.083 33.2279 419.56 33.6823C421.037 34.1367 422.332 34.8296 423.445 35.7612C424.558 36.6927 425.444 37.8968 426.103 39.3737C426.762 40.8505 427.091 42.6113 427.091 44.6561V58.4927C427.091 60.583 427.728 62.0598 429 62.9231ZM408.415 57.8111C408.415 59.9468 409.642 61.0146 412.096 61.0146C413.368 61.0146 414.8 60.3557 416.39 59.038V53.5851C415.481 53.5397 414.72 53.5056 414.107 53.4829C413.493 53.4602 413.028 53.4488 412.71 53.4488C409.847 53.4488 408.415 54.9029 408.415 57.8111Z" fill="white"/>
</g>
<defs>
<clipPath id="clip0_10_105">
<rect width="429" height="86.1221" fill="white"/>
</clipPath>
</defs>
</svg>
