<svg width="48" height="48" viewBox="0 0 48 48" fill="none" xmlns="http://www.w3.org/2000/svg">
<circle cx="24" cy="24" r="24" fill="black"/>
<path d="M31.29 36H16.05V32.55L21.36 27.18C22.44 26.06 23.3 25.14 23.94 24.42C24.58 23.7 25.03 23.07 25.29 22.53C25.57 21.97 25.71 21.38 25.71 20.76C25.71 20 25.49 19.45 25.05 19.11C24.61 18.75 24.04 18.57 23.34 18.57C22.6 18.57 21.86 18.76 21.12 19.14C20.38 19.52 19.58 20.07 18.72 20.79L15.93 17.52C16.55 16.96 17.21 16.44 17.91 15.96C18.63 15.46 19.46 15.06 20.4 14.76C21.34 14.44 22.48 14.28 23.82 14.28C25.26 14.28 26.49 14.54 27.51 15.06C28.55 15.56 29.35 16.25 29.91 17.13C30.49 17.99 30.78 18.98 30.78 20.1C30.78 21 30.65 21.84 30.39 22.62C30.13 23.38 29.74 24.12 29.22 24.84C28.72 25.54 28.09 26.27 27.33 27.03C26.57 27.79 25.71 28.62 24.75 29.52L22.53 31.56V31.74H31.29V36Z" fill="white"/>
</svg>
