<svg width="48" height="48" viewBox="0 0 48 48" fill="none" xmlns="http://www.w3.org/2000/svg">
<circle cx="24" cy="24" r="24" fill="black"/>
<path d="M30.51 19.32C30.51 20.32 30.3 21.18 29.88 21.9C29.46 22.62 28.9 23.22 28.2 23.7C27.5 24.16 26.71 24.5 25.83 24.72V24.81C27.55 25.01 28.86 25.53 29.76 26.37C30.68 27.21 31.14 28.36 31.14 29.82C31.14 31.02 30.83 32.12 30.21 33.12C29.59 34.1 28.63 34.88 27.33 35.46C26.05 36.02 24.39 36.3 22.35 36.3C21.09 36.3 19.96 36.2 18.96 36C17.96 35.8 17 35.51 16.08 35.13V30.84C17.02 31.32 17.98 31.68 18.96 31.92C19.96 32.14 20.88 32.25 21.72 32.25C23.24 32.25 24.29 32.01 24.87 31.53C25.47 31.05 25.77 30.37 25.77 29.49C25.77 28.95 25.63 28.49 25.35 28.11C25.07 27.73 24.58 27.44 23.88 27.24C23.18 27.04 22.18 26.94 20.88 26.94H19.41V23.07H20.91C22.13 23.07 23.07 22.96 23.73 22.74C24.41 22.52 24.88 22.22 25.14 21.84C25.4 21.44 25.53 20.99 25.53 20.49C25.53 19.81 25.3 19.29 24.84 18.93C24.38 18.57 23.69 18.39 22.77 18.39C22.11 18.39 21.5 18.48 20.94 18.66C20.38 18.84 19.88 19.04 19.44 19.26C19 19.48 18.64 19.68 18.36 19.86L16.11 16.41C16.69 16.01 17.32 15.65 18 15.33C18.7 14.99 19.48 14.73 20.34 14.55C21.22 14.37 22.23 14.28 23.37 14.28C25.57 14.28 27.31 14.73 28.59 15.63C29.87 16.51 30.51 17.74 30.51 19.32Z" fill="white"/>
</svg>
