<svg width="48" height="48" viewBox="0 0 48 48" fill="none" xmlns="http://www.w3.org/2000/svg">
<circle cx="24" cy="24" r="24" fill="black"/>
<path d="M31.86 31.71H29.4V36H24.39V31.71H15.51V28.05L24.69 14.58H29.4V27.81H31.86V31.71ZM24.39 24.72C24.39 24.42 24.39 24.07 24.39 23.67C24.41 23.25 24.42 22.84 24.42 22.44C24.44 22.02 24.46 21.66 24.48 21.36C24.5 21.04 24.52 20.84 24.54 20.76H24.39C24.21 21.18 24.03 21.56 23.85 21.9C23.67 22.22 23.45 22.58 23.19 22.98L19.98 27.81H24.39V24.72Z" fill="white"/>
</svg>
