<svg width="20" height="20" viewBox="0 0 20 20" fill="none" xmlns="http://www.w3.org/2000/svg">
<path d="M6.25 15C6.58152 15 6.89946 15.1317 7.13388 15.3661C7.3683 15.6005 7.5 15.9185 7.5 16.25C7.5 16.5815 7.3683 16.8995 7.13388 17.1339C6.89946 17.3683 6.58152 17.5 6.25 17.5C5.91848 17.5 5.60054 17.3683 5.36612 17.1339C5.1317 16.8995 5 16.5815 5 16.25C5 15.9185 5.1317 15.6005 5.36612 15.3661C5.60054 15.1317 5.91848 15 6.25 15ZM13.75 15C14.0815 15 14.3995 15.1317 14.6339 15.3661C14.8683 15.6005 15 15.9185 15 16.25C15 16.5815 14.8683 16.8995 14.6339 17.1339C14.3995 17.3683 14.0815 17.5 13.75 17.5C13.4185 17.5 13.1005 17.3683 12.8661 17.1339C12.6317 16.8995 12.5 16.5815 12.5 16.25C12.5 15.9185 12.6317 15.6005 12.8661 15.3661C13.1005 15.1317 13.4185 15 13.75 15Z" stroke="black" stroke-width="1.5"/>
<path d="M1.87418 1.91043C1.71771 1.85539 1.54578 1.86477 1.39622 1.93651C1.24666 2.00824 1.13172 2.13645 1.07668 2.29293C1.02165 2.4494 1.03103 2.62133 1.10277 2.77089C1.1745 2.92045 1.30271 3.03539 1.45918 3.09043L1.87418 1.91043ZM17.215 8.23626L17.8267 8.36209L17.8275 8.35876L17.215 8.23626ZM4.75668 8.13376V5.86542H3.50668V8.13376H4.75668ZM2.09168 1.98709L1.87418 1.91043L1.45918 3.09043L1.67668 3.16626L2.09168 1.98709ZM9.11502 13.5421H13.5333V12.2921H9.11502V13.5421ZM4.75668 5.86542C4.75668 5.27626 4.75752 4.78459 4.71502 4.38543C4.66918 3.97126 4.57335 3.59376 4.33835 3.25043L3.30585 3.95542C3.38085 4.06542 3.43918 4.21709 3.47168 4.51959C3.50585 4.83626 3.50668 5.24876 3.50668 5.86542H4.75668ZM1.67668 3.16626C2.23335 3.36209 2.59918 3.49209 2.86835 3.62542C3.12085 3.74876 3.23252 3.84876 3.30585 3.95626L4.33835 3.25043C4.10168 2.90376 3.78585 2.68209 3.41835 2.50126C3.06835 2.32959 2.62002 2.17293 2.09168 1.98709L1.67668 3.16626ZM3.50668 8.13376C3.50668 9.34459 3.51835 10.2171 3.63168 10.8838C3.75418 11.5954 3.99835 12.1054 4.45252 12.5854L5.36002 11.7254C5.09335 11.4438 4.94918 11.1688 4.86418 10.6729C4.77252 10.1313 4.75668 9.37459 4.75668 8.13376H3.50668ZM9.11502 12.2921C7.93418 12.2921 7.11502 12.2904 6.49752 12.2029C5.90168 12.1188 5.58752 11.9654 5.36002 11.7254L4.45252 12.5854C4.94752 13.1079 5.57502 13.3354 6.32168 13.4404C7.04668 13.5438 7.97252 13.5421 9.11502 13.5421V12.2921ZM4.13168 5.72542H14.24V4.47542H4.13252L4.13168 5.72542ZM16.6025 8.10959L16.1858 10.1304L17.4108 10.3821L17.8267 8.36209L16.6025 8.10959ZM14.2417 5.72542C14.955 5.72542 15.5833 5.72626 16.0792 5.78126C16.3242 5.81015 16.5108 5.84737 16.6392 5.89292C16.7733 5.94042 16.795 5.97626 16.7842 5.96209L17.775 5.20042C17.5792 4.94542 17.3042 4.80126 17.0533 4.71376C16.7821 4.62448 16.5018 4.56578 16.2175 4.53876C15.6383 4.47459 14.9317 4.47542 14.2417 4.47542V5.72542ZM17.8275 8.35876C17.9692 7.65209 18.0892 7.05876 18.1183 6.58376C18.1492 6.09542 18.0933 5.61376 17.775 5.20042L16.7842 5.96209C16.8358 6.02959 16.8925 6.15042 16.8708 6.50709C16.8483 6.87709 16.7508 7.37126 16.6025 8.11376L17.8275 8.35876ZM13.5333 13.5421C14.1683 13.5421 14.7017 13.5429 15.1317 13.4904C15.5775 13.4363 15.985 13.3163 16.34 13.0271L15.55 12.0579C15.4458 12.1429 15.2983 12.2113 14.9792 12.2496C14.6433 12.2913 14.2 12.2921 13.5333 12.2921V13.5421ZM16.1875 10.1304C16.0525 10.7829 15.9625 11.2163 15.8542 11.5371C15.7517 11.8421 15.6542 11.9729 15.55 12.0579L16.34 13.0271C16.6958 12.7371 16.895 12.3629 17.0383 11.9363C17.1767 11.5263 17.2833 11.0046 17.4117 10.3829L16.1875 10.1304Z" fill="black"/>
<path d="M10.8334 10.8333V9.16667M10.8334 9.16667V7.5M10.8334 9.16667H12.5001M10.8334 9.16667H9.16675" stroke="black" stroke-width="1.5" stroke-linecap="round"/>
</svg>
