<svg width="16" height="16" viewBox="0 0 16 16" fill="none" xmlns="http://www.w3.org/2000/svg">
<path d="M13.9998 12.6663V13.333H1.99985V12.6663L3.33318 11.333V7.33301C3.33318 5.26634 4.68652 3.44634 6.66652 2.85967V2.66634C6.66652 2.31272 6.80699 1.97358 7.05704 1.72353C7.30709 1.47348 7.64623 1.33301 7.99985 1.33301C8.35347 1.33301 8.69261 1.47348 8.94266 1.72353C9.19271 1.97358 9.33318 2.31272 9.33318 2.66634V2.85967C11.3132 3.44634 12.6665 5.26634 12.6665 7.33301V11.333L13.9998 12.6663ZM9.33318 13.9997C9.33318 14.3533 9.19271 14.6924 8.94266 14.9425C8.69261 15.1925 8.35347 15.333 7.99985 15.333C7.64623 15.333 7.30709 15.1925 7.05704 14.9425C6.80699 14.6924 6.66652 14.3533 6.66652 13.9997M13.1665 2.12634L12.2198 3.07301C12.7837 3.62995 13.2314 4.29329 13.5369 5.02456C13.8425 5.75582 13.9998 6.54047 13.9998 7.33301H15.3332C15.3332 5.37967 14.5598 3.49967 13.1665 2.12634ZM0.666517 7.33301H1.99985C1.99985 5.73301 2.63985 4.19967 3.77985 3.07301L2.83318 2.12634C2.1451 2.80739 1.59923 3.61839 1.22728 4.51222C0.855327 5.40604 0.664714 6.36488 0.666517 7.33301Z" fill="black"/>
</svg>
