<svg width="19" height="19" viewBox="0 0 19 19" fill="none" xmlns="http://www.w3.org/2000/svg">
<path d="M17.4167 7.91667L16.9219 6.82813L15.8333 6.33333L16.9219 5.83854L17.4167 4.75L17.9115 5.83854L19 6.33333L17.9115 6.82813L17.4167 7.91667ZM15.0417 4.75L14.2896 3.12708L12.6667 2.375L14.2896 1.62292L15.0417 0L15.7938 1.62292L17.4167 2.375L15.7938 3.12708L15.0417 4.75ZM7.125 17.4167C6.68958 17.4167 6.31697 17.2618 6.00717 16.952C5.69683 16.6416 5.54167 16.2688 5.54167 15.8333H8.70833C8.70833 16.2688 8.55343 16.6416 8.24363 16.952C7.93329 17.2618 7.56042 17.4167 7.125 17.4167ZM3.95833 15.0417V13.4583H10.2917V15.0417H3.95833ZM4.15625 12.6667C3.24583 12.1257 2.52357 11.4 1.98946 10.4896C1.45482 9.57917 1.1875 8.58959 1.1875 7.52083C1.1875 5.87153 1.76489 4.46975 2.91967 3.3155C4.07392 2.16072 5.47569 1.58333 7.125 1.58333C8.77431 1.58333 10.1761 2.16072 11.3303 3.3155C12.4851 4.46975 13.0625 5.87153 13.0625 7.52083C13.0625 8.58959 12.7954 9.57917 12.2613 10.4896C11.7267 11.4 11.0042 12.1257 10.0938 12.6667H4.15625Z" fill="black"/>
</svg>
